<svg xmlns="http://www.w3.org/2000/svg" viewBox="0 0 24 20"><defs/><path fill="#fff" fill-rule="evenodd" d="M16.71 1.28a3.27 3.27 0 014.59 0L23.05 3a3.24 3.24 0 010 4.58L12 18.72a3.27 3.27 0 01-4.59 0L1 12.29a3.24 3.24 0 010-4.58L2.7 6a3.26 3.26 0 014.59 0l2.38 2.34z"/><path fill-rule="evenodd" d="M7.57 19.18l-.2-.1L1 15.42a1.61 1.61 0 01-1-1.31 1.61 1.61 0 011-1.3l.15-.09L7.37 19zm14.05-9.84l1.43.81a1.61 1.61 0 01.95 1.31 1.59 1.59 0 01-.95 1.3L12 19.08l-.2.1.2-.18z" opacity=".8"/><path fill="#468c00" fill-rule="evenodd" d="M22 5.33a1.27 1.27 0 00-.36-.88L19.88 2.7a1.22 1.22 0 00-1.75 0l-8.47 8.47-3.79-3.8a1.24 1.24 0 00-1.75 0L2.36 9.12A1.27 1.27 0 002 10a1.28 1.28 0 00.36.88l6.43 6.42a1.24 1.24 0 001.75 0l11.1-11.09a1.28 1.28 0 00.36-.88"/></svg>